<mxfile host="app.diagrams.net" modified="2022-12-10T15:02:35.938Z" agent="5.0 (Windows NT 10.0; Win64; x64) AppleWebKit/537.36 (KHTML, like Gecko) Chrome/108.0.0.0 Safari/537.36" etag="ZJswFl0Z7h4WwvPaQ3OT" version="20.6.2" type="github">
  <diagram id="C5RBs43oDa-KdzZeNtuy" name="Page-1">
    <mxGraphModel dx="1038" dy="585" grid="1" gridSize="10" guides="1" tooltips="1" connect="1" arrows="1" fold="1" page="1" pageScale="1" pageWidth="827" pageHeight="1169" math="0" shadow="0">
      <root>
        <mxCell id="WIyWlLk6GJQsqaUBKTNV-0" />
        <mxCell id="WIyWlLk6GJQsqaUBKTNV-1" parent="WIyWlLk6GJQsqaUBKTNV-0" />
        <mxCell id="XJ_0UiAPM86uZZyixber-0" value="&lt;b&gt;Interface &lt;/b&gt;Equation Item" style="rounded=0;whiteSpace=wrap;html=1;" parent="WIyWlLk6GJQsqaUBKTNV-1" vertex="1">
          <mxGeometry x="870" y="200" width="120" height="60" as="geometry" />
        </mxCell>
        <mxCell id="XJ_0UiAPM86uZZyixber-2" value="&lt;b&gt;Class &lt;/b&gt;Operation" style="swimlane;fontStyle=0;childLayout=stackLayout;horizontal=1;startSize=30;horizontalStack=0;resizeParent=1;resizeParentMax=0;resizeLast=0;collapsible=1;marginBottom=0;whiteSpace=wrap;html=1;" parent="WIyWlLk6GJQsqaUBKTNV-1" vertex="1">
          <mxGeometry x="490" y="170" width="140" height="70" as="geometry" />
        </mxCell>
        <mxCell id="XJ_0UiAPM86uZZyixber-5" value="&lt;b&gt;Enum &lt;/b&gt;Operation Enum (Addition, Subtraction...)" style="text;strokeColor=default;fillColor=none;align=left;verticalAlign=middle;spacingLeft=4;spacingRight=4;overflow=hidden;points=[[0,0.5],[1,0.5]];portConstraint=eastwest;rotatable=0;whiteSpace=wrap;html=1;" parent="XJ_0UiAPM86uZZyixber-2" vertex="1">
          <mxGeometry y="30" width="140" height="40" as="geometry" />
        </mxCell>
        <mxCell id="XJ_0UiAPM86uZZyixber-9" value="&lt;b&gt;Class &lt;/b&gt;Functions" style="swimlane;fontStyle=0;childLayout=stackLayout;horizontal=1;startSize=30;horizontalStack=0;resizeParent=1;resizeParentMax=0;resizeLast=0;collapsible=1;marginBottom=0;whiteSpace=wrap;html=1;" parent="WIyWlLk6GJQsqaUBKTNV-1" vertex="1">
          <mxGeometry x="440" y="320" width="200" height="130" as="geometry" />
        </mxCell>
        <mxCell id="XJ_0UiAPM86uZZyixber-10" value="&lt;b&gt;Enum &lt;/b&gt;Function&lt;br&gt;(sin, cos, tan...)" style="text;strokeColor=default;fillColor=none;align=left;verticalAlign=middle;spacingLeft=4;spacingRight=4;overflow=hidden;points=[[0,0.5],[1,0.5]];portConstraint=eastwest;rotatable=0;whiteSpace=wrap;html=1;" parent="XJ_0UiAPM86uZZyixber-9" vertex="1">
          <mxGeometry y="30" width="200" height="30" as="geometry" />
        </mxCell>
        <mxCell id="XJ_0UiAPM86uZZyixber-11" value="&lt;b&gt;Dictionary&lt;br&gt;&amp;lt;Function, bool&amp;gt; &lt;/b&gt;functions&lt;b&gt;&amp;nbsp;&lt;/b&gt;&lt;i&gt;(Checks if function requires input)&lt;/i&gt;" style="text;strokeColor=default;fillColor=default;align=left;verticalAlign=middle;spacingLeft=4;spacingRight=4;overflow=hidden;points=[[0,0.5],[1,0.5]];portConstraint=eastwest;rotatable=0;whiteSpace=wrap;html=1;" parent="XJ_0UiAPM86uZZyixber-9" vertex="1">
          <mxGeometry y="60" width="200" height="70" as="geometry" />
        </mxCell>
        <mxCell id="XJ_0UiAPM86uZZyixber-14" value="&lt;b&gt;Class &lt;/b&gt;Term" style="swimlane;fontStyle=0;childLayout=stackLayout;horizontal=1;startSize=30;horizontalStack=0;resizeParent=1;resizeParentMax=0;resizeLast=0;collapsible=1;marginBottom=0;whiteSpace=wrap;html=1;strokeColor=default;fillColor=default;" parent="WIyWlLk6GJQsqaUBKTNV-1" vertex="1">
          <mxGeometry x="710" y="320" width="220" height="280" as="geometry" />
        </mxCell>
        <mxCell id="XJ_0UiAPM86uZZyixber-15" value="&lt;b&gt;Function &lt;/b&gt;function" style="text;strokeColor=default;fillColor=none;align=left;verticalAlign=middle;spacingLeft=4;spacingRight=4;overflow=hidden;points=[[0,0.5],[1,0.5]];portConstraint=eastwest;rotatable=0;whiteSpace=wrap;html=1;" parent="XJ_0UiAPM86uZZyixber-14" vertex="1">
          <mxGeometry y="30" width="220" height="30" as="geometry" />
        </mxCell>
        <mxCell id="XJ_0UiAPM86uZZyixber-16" value="&lt;b&gt;Float &lt;/b&gt;coefficient" style="text;strokeColor=default;fillColor=none;align=left;verticalAlign=middle;spacingLeft=4;spacingRight=4;overflow=hidden;points=[[0,0.5],[1,0.5]];portConstraint=eastwest;rotatable=0;whiteSpace=wrap;html=1;" parent="XJ_0UiAPM86uZZyixber-14" vertex="1">
          <mxGeometry y="60" width="220" height="30" as="geometry" />
        </mxCell>
        <mxCell id="XJ_0UiAPM86uZZyixber-17" value="&lt;b&gt;Term&amp;nbsp;&lt;/b&gt;input" style="text;strokeColor=default;fillColor=none;align=left;verticalAlign=middle;spacingLeft=4;spacingRight=4;overflow=hidden;points=[[0,0.5],[1,0.5]];portConstraint=eastwest;rotatable=0;whiteSpace=wrap;html=1;" parent="XJ_0UiAPM86uZZyixber-14" vertex="1">
          <mxGeometry y="90" width="220" height="30" as="geometry" />
        </mxCell>
        <mxCell id="XJ_0UiAPM86uZZyixber-19" value="&lt;b&gt;Equation&amp;nbsp;&lt;/b&gt;exponent" style="text;strokeColor=default;fillColor=none;align=left;verticalAlign=middle;spacingLeft=4;spacingRight=4;overflow=hidden;points=[[0,0.5],[1,0.5]];portConstraint=eastwest;rotatable=0;whiteSpace=wrap;html=1;" parent="XJ_0UiAPM86uZZyixber-14" vertex="1">
          <mxGeometry y="120" width="220" height="40" as="geometry" />
        </mxCell>
        <mxCell id="XJ_0UiAPM86uZZyixber-18" value="&lt;b&gt;Term&lt;/b&gt;&lt;i&gt;(Coefficient, function, exponent) for ax^n&lt;/i&gt;" style="text;strokeColor=default;fillColor=none;align=left;verticalAlign=middle;spacingLeft=4;spacingRight=4;overflow=hidden;points=[[0,0.5],[1,0.5]];portConstraint=eastwest;rotatable=0;whiteSpace=wrap;html=1;" parent="XJ_0UiAPM86uZZyixber-14" vertex="1">
          <mxGeometry y="160" width="220" height="40" as="geometry" />
        </mxCell>
        <mxCell id="XJ_0UiAPM86uZZyixber-20" value="&lt;b&gt;Term&lt;/b&gt;&lt;i&gt;(Coefficient, function, input, exponent) for asin^n(x)&lt;/i&gt;" style="text;strokeColor=default;fillColor=none;align=left;verticalAlign=middle;spacingLeft=4;spacingRight=4;overflow=hidden;points=[[0,0.5],[1,0.5]];portConstraint=eastwest;rotatable=0;whiteSpace=wrap;html=1;" parent="XJ_0UiAPM86uZZyixber-14" vertex="1">
          <mxGeometry y="200" width="220" height="40" as="geometry" />
        </mxCell>
        <mxCell id="XJ_0UiAPM86uZZyixber-21" value="&lt;b&gt;Term&lt;/b&gt;&lt;i&gt;(Coefficient, function) for constant terms&lt;/i&gt;" style="text;strokeColor=default;fillColor=none;align=left;verticalAlign=middle;spacingLeft=4;spacingRight=4;overflow=hidden;points=[[0,0.5],[1,0.5]];portConstraint=eastwest;rotatable=0;whiteSpace=wrap;html=1;" parent="XJ_0UiAPM86uZZyixber-14" vertex="1">
          <mxGeometry y="240" width="220" height="40" as="geometry" />
        </mxCell>
        <mxCell id="XJ_0UiAPM86uZZyixber-22" value="&lt;b&gt;Class &lt;/b&gt;Maths" style="swimlane;fontStyle=0;childLayout=stackLayout;horizontal=1;startSize=30;horizontalStack=0;resizeParent=1;resizeParentMax=0;resizeLast=0;collapsible=1;marginBottom=0;whiteSpace=wrap;html=1;strokeColor=default;fillColor=default;" parent="WIyWlLk6GJQsqaUBKTNV-1" vertex="1">
          <mxGeometry x="480" y="530" width="140" height="230" as="geometry" />
        </mxCell>
        <mxCell id="XJ_0UiAPM86uZZyixber-23" value="&lt;b&gt;Dictionary&lt;/b&gt;&lt;br&gt;&lt;b&gt;&amp;lt;Equation, Equation&amp;gt;&amp;nbsp;&lt;br&gt;&lt;/b&gt;Differentials &lt;i&gt;(Stores which functions go to what)&lt;/i&gt;" style="text;strokeColor=default;fillColor=none;align=left;verticalAlign=middle;spacingLeft=4;spacingRight=4;overflow=hidden;points=[[0,0.5],[1,0.5]];portConstraint=eastwest;rotatable=0;whiteSpace=wrap;html=1;" parent="XJ_0UiAPM86uZZyixber-22" vertex="1">
          <mxGeometry y="30" width="140" height="80" as="geometry" />
        </mxCell>
        <mxCell id="XJ_0UiAPM86uZZyixber-24" value="&lt;b&gt;Dictionary&amp;lt;char, OperationEnum&amp;gt;&lt;/b&gt; Operations" style="text;strokeColor=default;fillColor=none;align=left;verticalAlign=middle;spacingLeft=4;spacingRight=4;overflow=hidden;points=[[0,0.5],[1,0.5]];portConstraint=eastwest;rotatable=0;whiteSpace=wrap;html=1;" parent="XJ_0UiAPM86uZZyixber-22" vertex="1">
          <mxGeometry y="110" width="140" height="60" as="geometry" />
        </mxCell>
        <mxCell id="o4Fw-SGB_0SsbTImnL3u-3" value="&lt;b&gt;Function &lt;/b&gt;Differentiate Equation&lt;i&gt;(Equation)&lt;/i&gt;" style="text;strokeColor=default;fillColor=none;align=left;verticalAlign=middle;spacingLeft=4;spacingRight=4;overflow=hidden;points=[[0,0.5],[1,0.5]];portConstraint=eastwest;rotatable=0;whiteSpace=wrap;html=1;" vertex="1" parent="XJ_0UiAPM86uZZyixber-22">
          <mxGeometry y="170" width="140" height="60" as="geometry" />
        </mxCell>
        <mxCell id="XJ_0UiAPM86uZZyixber-27" value="&lt;b&gt;Class &lt;/b&gt;Main Window" style="swimlane;fontStyle=0;childLayout=stackLayout;horizontal=1;startSize=30;horizontalStack=0;resizeParent=1;resizeParentMax=0;resizeLast=0;collapsible=1;marginBottom=0;whiteSpace=wrap;html=1;strokeColor=default;fillColor=default;" parent="WIyWlLk6GJQsqaUBKTNV-1" vertex="1">
          <mxGeometry x="180" y="200" width="140" height="320" as="geometry">
            <mxRectangle x="170" y="430" width="150" height="30" as="alternateBounds" />
          </mxGeometry>
        </mxCell>
        <mxCell id="XJ_0UiAPM86uZZyixber-28" value="&lt;b&gt;Dictionary&amp;lt;char, char&amp;gt; &lt;/b&gt;Superscript &lt;i&gt;(Stores unicode versions of each digit which are superscript)&lt;/i&gt;" style="text;strokeColor=default;fillColor=none;align=left;verticalAlign=middle;spacingLeft=4;spacingRight=4;overflow=hidden;points=[[0,0.5],[1,0.5]];portConstraint=eastwest;rotatable=0;whiteSpace=wrap;html=1;" parent="XJ_0UiAPM86uZZyixber-27" vertex="1">
          <mxGeometry y="30" width="140" height="90" as="geometry" />
        </mxCell>
        <mxCell id="XJ_0UiAPM86uZZyixber-29" value="&lt;b&gt;Bool &lt;/b&gt;isSuperscript &lt;i&gt;(If using superscript while typing equation)&lt;/i&gt;" style="text;strokeColor=default;fillColor=none;align=left;verticalAlign=middle;spacingLeft=4;spacingRight=4;overflow=hidden;points=[[0,0.5],[1,0.5]];portConstraint=eastwest;rotatable=0;whiteSpace=wrap;html=1;" parent="XJ_0UiAPM86uZZyixber-27" vertex="1">
          <mxGeometry y="120" width="140" height="60" as="geometry" />
        </mxCell>
        <mxCell id="XJ_0UiAPM86uZZyixber-30" value="&lt;b&gt;String &lt;/b&gt;EquationStr&lt;i&gt;(Equation)&lt;/i&gt;&lt;br&gt;&lt;i&gt;Displays equation as string&lt;/i&gt;" style="text;strokeColor=default;fillColor=none;align=left;verticalAlign=middle;spacingLeft=4;spacingRight=4;overflow=hidden;points=[[0,0.5],[1,0.5]];portConstraint=eastwest;rotatable=0;whiteSpace=wrap;html=1;" parent="XJ_0UiAPM86uZZyixber-27" vertex="1">
          <mxGeometry y="180" width="140" height="70" as="geometry" />
        </mxCell>
        <mxCell id="o4Fw-SGB_0SsbTImnL3u-0" value="&lt;b&gt;Equation &lt;/b&gt;stringToEquation&lt;i&gt;(string)&lt;br&gt;Converts a string into an equation&lt;/i&gt;" style="text;strokeColor=default;fillColor=none;align=left;verticalAlign=middle;spacingLeft=4;spacingRight=4;overflow=hidden;points=[[0,0.5],[1,0.5]];portConstraint=eastwest;rotatable=0;whiteSpace=wrap;html=1;" vertex="1" parent="XJ_0UiAPM86uZZyixber-27">
          <mxGeometry y="250" width="140" height="70" as="geometry" />
        </mxCell>
        <mxCell id="o4Fw-SGB_0SsbTImnL3u-2" value="&lt;b&gt;List&amp;lt;Equation Item&amp;gt;&amp;nbsp;&lt;br&gt;&lt;/b&gt;Equation" style="rounded=0;whiteSpace=wrap;html=1;" vertex="1" parent="WIyWlLk6GJQsqaUBKTNV-1">
          <mxGeometry x="710" y="190" width="120" height="60" as="geometry" />
        </mxCell>
        <mxCell id="o4Fw-SGB_0SsbTImnL3u-6" value="UI" style="swimlane;fontStyle=0;childLayout=stackLayout;horizontal=1;startSize=30;horizontalStack=0;resizeParent=1;resizeParentMax=0;resizeLast=0;collapsible=1;marginBottom=0;whiteSpace=wrap;html=1;strokeColor=default;" vertex="1" parent="WIyWlLk6GJQsqaUBKTNV-1">
          <mxGeometry x="190" y="560" width="140" height="140" as="geometry" />
        </mxCell>
        <mxCell id="o4Fw-SGB_0SsbTImnL3u-7" value="&lt;b&gt;RichTextBox &lt;/b&gt;input &lt;i&gt;(so the input can span multiple lines)&lt;/i&gt;" style="text;strokeColor=none;fillColor=none;align=left;verticalAlign=middle;spacingLeft=4;spacingRight=4;overflow=hidden;points=[[0,0.5],[1,0.5]];portConstraint=eastwest;rotatable=0;whiteSpace=wrap;html=1;" vertex="1" parent="o4Fw-SGB_0SsbTImnL3u-6">
          <mxGeometry y="30" width="140" height="50" as="geometry" />
        </mxCell>
        <mxCell id="o4Fw-SGB_0SsbTImnL3u-8" value="&lt;b&gt;RichTextBox &lt;/b&gt;output" style="text;strokeColor=none;fillColor=none;align=left;verticalAlign=middle;spacingLeft=4;spacingRight=4;overflow=hidden;points=[[0,0.5],[1,0.5]];portConstraint=eastwest;rotatable=0;whiteSpace=wrap;html=1;" vertex="1" parent="o4Fw-SGB_0SsbTImnL3u-6">
          <mxGeometry y="80" width="140" height="30" as="geometry" />
        </mxCell>
        <mxCell id="o4Fw-SGB_0SsbTImnL3u-9" value="&lt;b&gt;Button &lt;/b&gt;Differentiate" style="text;strokeColor=none;fillColor=none;align=left;verticalAlign=middle;spacingLeft=4;spacingRight=4;overflow=hidden;points=[[0,0.5],[1,0.5]];portConstraint=eastwest;rotatable=0;whiteSpace=wrap;html=1;" vertex="1" parent="o4Fw-SGB_0SsbTImnL3u-6">
          <mxGeometry y="110" width="140" height="30" as="geometry" />
        </mxCell>
      </root>
    </mxGraphModel>
  </diagram>
</mxfile>
